<svg xmlns="http://www.w3.org/2000/svg" width="1120" height="720" viewBox="0 0 1120 720">
<style>text{font-family:Inter,Arial,sans-serif;fill:#111827}.title{font-size:26px;font-weight:700}.subtitle{font-size:15px;fill:#6B7280}.axis{font-size:13px;fill:#6B7280}.label{font-size:13px;font-weight:600}.legend{font-size:14px;fill:#374151}.value{font-size:12px;fill:#374151}</style>
<rect width="100%" height="100%" fill="#FFFFFF"/>
<text x="92" y="48" class="title">Main Period WAU Composition by Lifecycle Segment</text>
<text x="92" y="75" class="subtitle">2020-11-23 to 2020-12-20 · WAU = active anonymous users by week</text>
<line x1="92" y1="615.0" x2="1072" y2="615.0" stroke="#E5E7EB"/>
<text x="80" y="619.0" text-anchor="end" class="axis">0</text>
<line x1="92" y1="513.0" x2="1072" y2="513.0" stroke="#E5E7EB"/>
<text x="80" y="517.0" text-anchor="end" class="axis">6,299</text>
<line x1="92" y1="411.0" x2="1072" y2="411.0" stroke="#E5E7EB"/>
<text x="80" y="415.0" text-anchor="end" class="axis">12,599</text>
<line x1="92" y1="309.0" x2="1072" y2="309.0" stroke="#E5E7EB"/>
<text x="80" y="313.0" text-anchor="end" class="axis">18,898</text>
<line x1="92" y1="207.0" x2="1072" y2="207.0" stroke="#E5E7EB"/>
<text x="80" y="211.0" text-anchor="end" class="axis">25,198</text>
<line x1="92" y1="105.0" x2="1072" y2="105.0" stroke="#E5E7EB"/>
<text x="80" y="109.0" text-anchor="end" class="axis">31,498</text>
<rect x="168.5" y="290.0" width="92" height="325.0" fill="#2F80ED" rx="3"/>
<text x="214.5" y="456.5" text-anchor="middle" fill="#FFFFFF" style="font-size:12px;font-weight:700">20,072</text>
<rect x="168.5" y="267.8" width="92" height="22.2" fill="#27AE60" rx="3"/>
<rect x="168.5" y="256.7" width="92" height="11.1" fill="#F2994A" rx="3"/>
<text x="214.5" y="641" text-anchor="middle" class="axis">11-23</text>
<text x="214.5" y="661" text-anchor="middle" class="value">22,126</text>
<rect x="413.5" y="258.2" width="92" height="356.8" fill="#2F80ED" rx="3"/>
<text x="459.5" y="440.6" text-anchor="middle" fill="#FFFFFF" style="font-size:12px;font-weight:700">22,034</text>
<rect x="413.5" y="235.0" width="92" height="23.2" fill="#27AE60" rx="3"/>
<rect x="413.5" y="217.8" width="92" height="17.3" fill="#F2994A" rx="3"/>
<text x="459.5" y="641" text-anchor="middle" class="axis">11-30</text>
<text x="459.5" y="661" text-anchor="middle" class="value">24,534</text>
<rect x="658.5" y="152.8" width="92" height="462.2" fill="#2F80ED" rx="3"/>
<text x="704.5" y="387.9" text-anchor="middle" fill="#FFFFFF" style="font-size:12px;font-weight:700">28,545</text>
<rect x="658.5" y="124.9" width="92" height="27.9" fill="#27AE60" rx="3"/>
<rect x="658.5" y="105.0" width="92" height="19.9" fill="#F2994A" rx="3"/>
<text x="704.5" y="641" text-anchor="middle" class="axis">12-07</text>
<text x="704.5" y="661" text-anchor="middle" class="value">31,498</text>
<rect x="903.5" y="212.8" width="92" height="402.2" fill="#2F80ED" rx="3"/>
<text x="949.5" y="417.9" text-anchor="middle" fill="#FFFFFF" style="font-size:12px;font-weight:700">24,839</text>
<rect x="903.5" y="189.2" width="92" height="23.6" fill="#27AE60" rx="3"/>
<rect x="903.5" y="171.0" width="92" height="18.2" fill="#F2994A" rx="3"/>
<text x="949.5" y="641" text-anchor="middle" class="axis">12-14</text>
<text x="949.5" y="661" text-anchor="middle" class="value">27,421</text>
<rect x="92" y="678" width="14" height="14" fill="#2F80ED" rx="2"/>
<text x="114" y="690" class="legend">NAU</text>
<rect x="197" y="678" width="14" height="14" fill="#27AE60" rx="2"/>
<text x="219" y="690" class="legend">EAU</text>
<rect x="302" y="678" width="14" height="14" fill="#F2994A" rx="2"/>
<text x="324" y="690" class="legend">RAU</text>
<text x="1072" y="690" text-anchor="end" class="axis">x label: week start · bar label: total WAU</text>
</svg>