<svg xmlns="http://www.w3.org/2000/svg" width="1180" height="760" viewBox="0 0 1180 760">
<style>text{font-family:Inter,Arial,sans-serif;fill:#111827}.title{font-size:26px;font-weight:700}.subtitle{font-size:15px;fill:#6B7280}.axis{font-size:13px;fill:#6B7280}.legend{font-size:14px;fill:#374151}.barlabel{font-size:12px;fill:#374151;font-weight:600}</style>
<rect width="100%" height="100%" fill="#FFFFFF"/>
<text x="95" y="48" class="title">Main Period Weekly Revenue Decomposition</text>
<text x="95" y="75" class="subtitle">Weekly Revenue = WAU x Weekly Buyer CVR x ARPPU · indexed lines use first week = 100</text>
<line x1="95" y1="645.0" x2="1125" y2="645.0" stroke="#E5E7EB"/>
<text x="83" y="649.0" text-anchor="end" class="axis">$0</text>
<line x1="95" y1="537.0" x2="1125" y2="537.0" stroke="#E5E7EB"/>
<text x="83" y="541.0" text-anchor="end" class="axis">$11,973</text>
<line x1="95" y1="429.0" x2="1125" y2="429.0" stroke="#E5E7EB"/>
<text x="83" y="433.0" text-anchor="end" class="axis">$23,946</text>
<line x1="95" y1="321.0" x2="1125" y2="321.0" stroke="#E5E7EB"/>
<text x="83" y="325.0" text-anchor="end" class="axis">$35,919</text>
<line x1="95" y1="213.0" x2="1125" y2="213.0" stroke="#E5E7EB"/>
<text x="83" y="217.0" text-anchor="end" class="axis">$47,892</text>
<line x1="95" y1="105.0" x2="1125" y2="105.0" stroke="#E5E7EB"/>
<text x="83" y="109.0" text-anchor="end" class="axis">$59,865</text>
<rect x="187.8" y="213.0" width="72" height="432.0" fill="#2F80ED" rx="4"/>
<text x="223.8" y="205.0" text-anchor="middle" class="barlabel">$47.9k</text>
<text x="223.8" y="673" text-anchor="middle" class="axis">11-23</text>
<rect x="445.2" y="258.3" width="72" height="386.7" fill="#2F80ED" rx="4"/>
<text x="481.2" y="250.3" text-anchor="middle" class="barlabel">$42.9k</text>
<text x="481.2" y="673" text-anchor="middle" class="axis">11-30</text>
<rect x="702.8" y="105.0" width="72" height="540.0" fill="#2F80ED" rx="4"/>
<text x="738.8" y="97.0" text-anchor="middle" class="barlabel">$59.9k</text>
<text x="738.8" y="673" text-anchor="middle" class="axis">12-07</text>
<rect x="960.2" y="218.6" width="72" height="426.4" fill="#2F80ED" rx="4"/>
<text x="996.2" y="210.6" text-anchor="middle" class="barlabel">$47.3k</text>
<text x="996.2" y="673" text-anchor="middle" class="axis">12-14</text>
<path d="M 223.8 259.3 L 481.2 217.3 L 738.8 95.9 L 996.2 167.0" fill="none" stroke="#27AE60" stroke-width="3"/>
<circle cx="223.8" cy="259.3" r="4.5" fill="#27AE60"/>
<circle cx="481.2" cy="217.3" r="4.5" fill="#27AE60"/>
<circle cx="738.8" cy="95.9" r="4.5" fill="#27AE60"/>
<circle cx="996.2" cy="167.0" r="4.5" fill="#27AE60"/>
<path d="M 223.8 259.3 L 481.2 245.6 L 738.8 243.9 L 996.2 317.6" fill="none" stroke="#F2994A" stroke-width="3"/>
<circle cx="223.8" cy="259.3" r="4.5" fill="#F2994A"/>
<circle cx="481.2" cy="245.6" r="4.5" fill="#F2994A"/>
<circle cx="738.8" cy="243.9" r="4.5" fill="#F2994A"/>
<circle cx="996.2" cy="317.6" r="4.5" fill="#F2994A"/>
<path d="M 223.8 259.3 L 481.2 345.0 L 738.8 319.9 L 996.2 283.2" fill="none" stroke="#7C3AED" stroke-width="3"/>
<circle cx="223.8" cy="259.3" r="4.5" fill="#7C3AED"/>
<circle cx="481.2" cy="345.0" r="4.5" fill="#7C3AED"/>
<circle cx="738.8" cy="319.9" r="4.5" fill="#7C3AED"/>
<circle cx="996.2" cy="283.2" r="4.5" fill="#7C3AED"/>
<line x1="95" y1="715" x2="121" y2="715" stroke="#27AE60" stroke-width="3"/>
<text x="129" y="720" class="legend">WAU index</text>
<line x1="275" y1="715" x2="301" y2="715" stroke="#F2994A" stroke-width="3"/>
<text x="309" y="720" class="legend">Buyer CVR index</text>
<line x1="455" y1="715" x2="481" y2="715" stroke="#7C3AED" stroke-width="3"/>
<text x="489" y="720" class="legend">ARPPU index</text>
<rect x="940" y="704" width="14" height="14" fill="#2F80ED" rx="2"/>
<text x="962" y="716" class="legend">Weekly Revenue</text>
</svg>